<?xml version="1.0" encoding="UTF-8"?>
<svg width="97px" height="18px" viewBox="0 0 97 18" version="1.1" xmlns="http://www.w3.org/2000/svg" xmlns:xlink="http://www.w3.org/1999/xlink">
    <!-- Generator: Sketch 59.1 (86144) - https://sketch.com -->
    <title>LOGO Copy 2</title>
    <desc>Created with Sketch.</desc>
    <g id="LOGO-Copy-2" stroke="none" stroke-width="1" fill="none" fill-rule="evenodd">
        <path d="M3.37175926,10.8275463 C3.37175926,10.3368056 3.41921296,9.85393519 3.51435185,9.37916667 C3.60925926,8.90416667 3.77152778,8.48472222 4.00092593,8.12060185 C4.23055556,7.75671296 4.53518519,7.45972222 4.91527778,7.23032407 C5.29513889,7.00069444 5.76990741,6.88587963 6.33981481,6.88587963 C6.90972222,6.88587963 7.38865741,7.00069444 7.77638889,7.23032407 C8.16412037,7.45972222 8.47291667,7.75671296 8.70231481,8.12060185 C8.93194444,8.48472222 9.09421296,8.90416667 9.18912037,9.37916667 C9.28402778,9.85393519 9.33171296,10.3368056 9.33171296,10.8275463 C9.33171296,11.318287 9.28402778,11.7969907 9.18912037,12.2641204 C9.09421296,12.7310185 8.93194444,13.150463 8.70231481,13.5224537 C8.47291667,13.8944444 8.16412037,14.1914352 7.77638889,14.412963 C7.38865741,14.6344907 6.90972222,14.7453704 6.33981481,14.7453704 C5.76990741,14.7453704 5.29513889,14.6344907 4.91527778,14.412963 C4.53518519,14.1914352 4.23055556,13.8944444 4.00092593,13.5224537 C3.77152778,13.150463 3.60925926,12.7310185 3.51435185,12.2641204 C3.41921296,11.7969907 3.37175926,11.318287 3.37175926,10.8275463 L3.37175926,10.8275463 Z M-1.15463195e-13,10.8275463 C-1.15463195e-13,11.8090278 0.150462963,12.6953704 0.451157407,13.4868056 C0.752083333,14.2784722 1.17939815,14.9550926 1.73333333,15.5171296 C2.2875,16.0789352 2.95231481,16.5104167 3.72800926,16.8111111 C4.5037037,17.1118056 5.37430556,17.2622685 6.33981481,17.2622685 C7.30532407,17.2622685 8.18009259,17.1118056 8.96365741,16.8111111 C9.74722222,16.5104167 10.4159722,16.0789352 10.9699074,15.5171296 C11.5240741,14.9550926 11.9513889,14.2784722 12.2520833,13.4868056 C12.5530093,12.6953704 12.7032407,11.8090278 12.7032407,10.8275463 C12.7032407,9.84606481 12.5530093,8.95578704 12.2520833,8.15625 C11.9513889,7.35694444 11.5240741,6.67615741 10.9699074,6.11435185 C10.4159722,5.55231481 9.74722222,5.11712963 8.96365741,4.80833333 C8.18009259,4.49976852 7.30532407,4.34537037 6.33981481,4.34537037 C5.37430556,4.34537037 4.5037037,4.49976852 3.72800926,4.80833333 C2.95231481,5.11712963 2.2875,5.55231481 1.73333333,6.11435185 C1.17939815,6.67615741 0.752083333,7.35694444 0.451157407,8.15625 C0.150462963,8.95578704 -1.15463195e-13,9.84606481 -1.15463195e-13,10.8275463 L-1.15463195e-13,10.8275463 Z" id="Shape" fill="#000000" fill-rule="nonzero"></path>
        <path d="M16.5699074,4.97777778 L16.5699074,6.38726852 L16.5699074,6.38726852 L16.6409722,6.38726852 C16.8467593,6.08657407 17.0685185,5.80949074 17.305787,5.55625 C17.543287,5.30300926 17.8085648,5.08935185 18.1013889,4.91527778 C18.394213,4.74097222 18.7305556,4.6025463 19.1104167,4.49976852 C19.4902778,4.39675926 19.9256944,4.34537037 20.4164352,4.34537037 C21.1604167,4.34537037 21.8530093,4.51157407 22.4939815,4.84398148 C23.1351852,5.17638889 23.5902778,5.69074074 23.8592593,6.38726852 C24.318287,5.75416667 24.8486111,5.25555556 25.4502315,4.89143519 C26.0516204,4.52731481 26.8037037,4.34537037 27.705787,4.34537037 C29.0039352,4.34537037 30.012963,4.66180556 30.7333333,5.29513889 C31.4534722,5.92824074 31.8136574,6.98888889 31.8136574,8.47685185 L31.8136574,16.6534722 C31.8136574,16.8191576 31.6793428,16.9534722 31.5136574,16.9534722 L29.406713,16.9534722 C29.2410275,16.9534722 29.106713,16.8191576 29.106713,16.6534722 L29.106713,9.78287037 L29.106713,9.78287037 C29.106713,9.29212963 29.0909722,8.84490741 29.0592593,8.4412037 C29.0277778,8.0375 28.9365741,7.68935185 28.7863426,7.39652778 C28.6358796,7.1037037 28.4104167,6.87800926 28.1094907,6.71967593 C27.8087963,6.56157407 27.3972222,6.48240741 26.8747685,6.48240741 C25.956713,6.48240741 25.2918981,6.76736111 24.8803241,7.33703704 C24.46875,7.90694444 24.262963,8.71435185 24.262963,9.75902778 L24.262963,16.6534722 C24.262963,16.8191576 24.1286484,16.9534722 23.962963,16.9534722 L21.8560185,16.9534722 C21.6903331,16.9534722 21.5560185,16.8191576 21.5560185,16.6534722 L21.5560185,9.07037037 L21.5560185,9.07037037 C21.5560185,8.21574074 21.4018519,7.57060185 21.0930556,7.13518519 C20.7844907,6.7 20.2185185,6.48240741 19.3953704,6.48240741 C19.0472222,6.48240741 18.7106481,6.55347222 18.3863426,6.69606481 C18.0618056,6.83842593 17.7768519,7.04421296 17.5314815,7.31342593 C17.2861111,7.58240741 17.0881944,7.91481481 16.9377315,8.31064815 C16.7875,8.70648148 16.7122685,9.15740741 16.7122685,9.66412037 L16.7122685,16.6534722 C16.7122685,16.8191576 16.5779539,16.9534722 16.4122685,16.9534722 L14.0053241,16.9534722 L14.0053241,16.9534722 L14.0053241,4.67777778 L16.2699074,4.67777778 C16.4355928,4.67777778 16.5699074,4.81209235 16.5699074,4.97777778 Z" id="Path" fill="#000000" fill-rule="nonzero"></path>
        <path d="M42.1527778,9.73518519 C42.1210648,9.30787037 42.0300926,8.8962963 41.8796296,8.50069444 C41.7293981,8.10486111 41.5236111,7.76064815 41.2622685,7.46782407 C41.0011574,7.17476852 40.6844907,6.9375 40.3125,6.75532407 C39.9405093,6.57337963 39.525,6.48240741 39.0659722,6.48240741 C38.5912037,6.48240741 38.1597222,6.56550926 37.7719907,6.73171296 C37.3840278,6.89791667 37.0516204,7.12731481 36.7747685,7.42013889 C36.4976852,7.71296296 36.2761574,8.05740741 36.1099537,8.45300926 C35.9435185,8.84884259 35.8525463,9.27615741 35.8368056,9.73518519 L42.1527778,9.73518519 Z M36.0386574,12.893287 C36.1731481,13.3365741 36.375,13.7243056 36.6439815,14.056713 C36.9131944,14.3891204 37.2534722,14.6543981 37.6650463,14.8523148 C38.0766204,15.05 38.5673611,15.1490741 39.1372685,15.1490741 C39.9287037,15.1490741 40.5659722,14.9789352 41.0486111,14.6384259 C41.3705247,14.4115741 41.7306327,13.9010802 42.1289352,13.1069444 L44.6935185,13.1069444 C44.4348765,13.9459877 44.1895062,14.5395833 43.9574074,14.8877315 C43.6090278,15.4101852 43.1895833,15.849537 42.6988426,16.2055556 C42.2081019,16.5618056 41.6581019,16.8310185 41.0486111,17.012963 C40.4391204,17.1949074 39.8020833,17.2861111 39.1372685,17.2861111 C38.1717593,17.2861111 37.3168981,17.1277778 36.5729167,16.8111111 C35.8289352,16.4944444 35.199537,16.0513889 34.6851852,15.4814815 C34.1708333,14.9115741 33.7828704,14.230787 33.5217593,13.4393519 C33.2604167,12.6479167 33.1298611,11.7773148 33.1298611,10.8275463 C33.1298611,9.95694444 33.2685185,9.12986111 33.5453704,8.3462963 C33.8224537,7.56273148 34.218287,6.87407407 34.7326389,6.28055556 C35.2472222,5.68680556 35.8685185,5.21597222 36.5965278,4.86759259 C37.3247685,4.51944444 38.1479167,4.34537037 39.0659722,4.34537037 C40.031713,4.34537037 40.8983796,4.54722222 41.6659722,4.95069444 C42.4337963,5.35439815 43.0708333,5.88865741 43.5775463,6.55347222 C44.0840278,7.21828704 44.4520833,7.98217593 44.6814815,8.84490741 C44.8345679,9.42006173 44.8939815,10.3104938 44.8597222,11.5162037 L35.8368056,11.5162037 C35.8368056,11.9909722 35.9041667,12.45 36.0386574,12.893287 Z" id="Shape" fill="#000000" fill-rule="nonzero"></path>
        <path d="M46.3513889,16.9534722 L48.0696759,16.9534722 C48.2353614,16.9534722 48.3696759,16.8191576 48.3696759,16.6534722 L48.3696759,11.4923611 L48.3696759,11.4923611 C48.3696759,10.7009259 48.4486111,10.000463 48.6069444,9.39097222 C48.7652778,8.78148148 49.0185185,8.26319444 49.3668981,7.83564815 C49.7150463,7.40833333 50.1740741,7.0837963 50.7439815,6.86226852 C51.3138889,6.64050926 52.0025463,6.52986111 52.8097222,6.52986111 L52.8097222,4.39282407 C51.7175926,4.36111111 50.8152778,4.58287037 50.1030093,5.05763889 C49.3905093,5.53263889 48.7891204,6.26851852 48.2983796,7.26597222 L48.2509259,7.26597222 L48.2509259,4.97777778 C48.2509259,4.81209235 48.1166114,4.67777778 47.9509259,4.67777778 L46.3513889,4.67777778 L46.3513889,4.67777778 L46.3513889,16.9534722 Z" id="Path" fill="#000000" fill-rule="nonzero"></path>
        <path d="M54.1773148,8.45300926 L55.6733796,8.45300926 C55.7048611,7.45578704 56.0215278,6.73171296 56.6231481,6.28055556 C57.224537,5.82939815 58.0002315,5.6037037 58.95,5.6037037 C59.393287,5.6037037 59.8087963,5.63935185 60.1965278,5.71064815 C60.5844907,5.78194444 60.9247685,5.9125 61.2175926,6.10231481 C61.5104167,6.29236111 61.7400463,6.54953704 61.90625,6.87407407 C62.0724537,7.19861111 62.1555556,7.61412037 62.1555556,8.12060185 C62.1555556,8.45300926 62.112037,8.72222222 62.025,8.92800926 C61.9377315,9.1337963 61.8150463,9.29606481 61.6569444,9.41481481 C61.4986111,9.53356481 61.3006944,9.61666667 61.0631944,9.66412037 C60.8256944,9.71157407 60.5488426,9.75115741 60.2321759,9.78287037 C59.4247685,9.87777778 58.6293981,9.97662037 57.8458333,10.0796296 C57.0622685,10.1824074 56.3578704,10.3606481 55.7326389,10.6138889 C55.1074074,10.8671296 54.6048611,11.2351852 54.2247685,11.7180556 C53.8449074,12.2006944 53.6550926,12.8694444 53.6550926,13.7243056 C53.6550926,14.3416667 53.7618056,14.8759259 53.975463,15.3270833 C54.1893519,15.7782407 54.4821759,16.1502315 54.8541667,16.4430556 C55.2261574,16.7358796 55.6613426,16.949537 56.1599537,17.0842593 C56.6585648,17.21875 57.1928241,17.2861111 57.7627315,17.2861111 C58.3643519,17.2861111 58.8826389,17.2305556 59.3180556,17.1199074 C59.7532407,17.0090278 60.1412037,16.8506944 60.4814815,16.6449074 C60.8217593,16.4391204 61.1305556,16.1819444 61.4076389,15.8731481 C61.6844907,15.5645833 61.9576389,15.2122685 62.2266204,14.8166667 L62.2743056,14.8166667 C62.2743056,15.1331019 62.2939815,15.4219907 62.3335648,15.6833333 C62.3731481,15.9444444 62.45625,16.1699074 62.5828704,16.3599537 C62.7094907,16.55 62.8875,16.6962963 63.1171296,16.7993056 C63.3467593,16.9020833 63.6513889,16.9534722 64.03125,16.9534722 C64.237037,16.9534722 64.4071759,16.9456019 64.5418981,16.9298611 C64.6763889,16.9141204 64.830787,16.8902778 65.0048611,16.8585648 L65.0048611,15.6002315 C64.8622685,15.6634259 64.7039352,15.6951389 64.5298611,15.6951389 C63.944213,15.6951389 63.6513889,15.3944444 63.6513889,14.7928241 L63.6513889,8.28680556 C63.6513889,7.46365741 63.5168981,6.79490741 63.2476852,6.28055556 C62.9787037,5.76597222 62.6303241,5.36643519 62.2030093,5.08148148 C61.775463,4.79652778 61.2928241,4.6025463 60.7546296,4.49976852 C60.2164352,4.39675926 59.6782407,4.34537037 59.1400463,4.34537037 C58.4275463,4.34537037 57.7787037,4.42453704 57.1928241,4.58287037 C56.6071759,4.74097222 56.0967593,4.98634259 55.6613426,5.31875 C55.2261574,5.65115741 54.881713,6.0787037 54.6284722,6.60115741 C54.3752315,7.12337963 54.2247685,7.74074074 54.1773148,8.45300926 L54.1773148,8.45300926 Z M62.1555556,10.2576389 L62.1555556,12.2046296 C62.1555556,12.80625 62.0407407,13.3444444 61.8111111,13.8194444 C61.581713,14.294213 61.2729167,14.6979167 60.8851852,15.0303241 C60.4972222,15.3627315 60.0421296,15.6159722 59.5199074,15.7900463 C58.9974537,15.9643519 58.4513889,16.0513889 57.8814815,16.0513889 C57.5333333,16.0513889 57.1928241,15.9958333 56.8604167,15.8851852 C56.5280093,15.7743056 56.2351852,15.612037 55.9819444,15.3983796 C55.7287037,15.1847222 55.5268519,14.93125 55.3763889,14.6384259 C55.2261574,14.3456019 55.1509259,14.0092593 55.1509259,13.6293981 C55.1509259,13.0277778 55.3289352,12.5648148 55.6851852,12.2402778 C56.0412037,11.9157407 56.4962963,11.6664352 57.050463,11.4923611 C57.6043981,11.318287 58.2178241,11.1877315 58.8907407,11.1006944 C59.5634259,11.0134259 60.2164352,10.9145833 60.849537,10.8037037 C61.0553241,10.7722222 61.2928241,10.7166667 61.5618056,10.6375 C61.8310185,10.5583333 62.012963,10.431713 62.1081019,10.2576389 L62.1555556,10.2576389 L62.1555556,10.2576389 Z" id="Shape" fill="#000000" fill-rule="nonzero"></path>
        <path d="M66.2833333,1.10134124e-13 L66.7854167,1.10134124e-13 C66.8958736,1.10113833e-13 66.9854167,0.08954305 66.9854167,0.2 L66.9854167,11.0131611 C66.9854167,11.0683896 67.0301882,11.1131611 67.0854167,11.1131611 C67.1093677,11.1131611 67.1325233,11.1045647 67.150672,11.0889354 L74.4562384,4.7975255 C74.4925358,4.76626683 74.5388469,4.74907407 74.586749,4.74907407 L75.2760142,4.74907407 C75.3864711,4.74907407 75.4760142,4.83861712 75.4760142,4.94907407 C75.4760142,5.00761442 75.4503662,5.06321582 75.4058345,5.10121444 L70.5472852,9.24698001 C70.5071583,9.28121997 70.500528,9.3407405 70.5321363,9.38297144 L75.9589892,16.6336297 C76.0251764,16.7220605 76.0071444,16.8474031 75.9187137,16.9135902 C75.8841228,16.9394802 75.8420779,16.9534722 75.7988712,16.9534722 L75.0638614,16.9534722 C75.0007951,16.9534722 74.9414233,16.9237258 74.9036659,16.8732111 L69.8272542,10.0816123 C69.7941893,10.0373755 69.7315238,10.028319 69.687287,10.061384 C69.6856753,10.0625887 69.6841003,10.0638417 69.6825642,10.0651414 L67.0562322,12.2873046 C67.0113197,12.3253054 66.9854167,12.3811533 66.9854167,12.4399852 L66.9854167,16.7534722 C66.9854167,16.8639292 66.8958736,16.9534722 66.7854167,16.9534722 L66.2833333,16.9534722 C66.1728764,16.9534722 66.0833333,16.8639292 66.0833333,16.7534722 L66.0833333,0.2 C66.0833333,0.08954305 66.1728764,1.0943277e-13 66.2833333,1.10134124e-13 Z" id="Path" fill="#000000" fill-rule="nonzero"></path>
        <path d="M85.6912037,8.35810185 C85.6912037,6.99675926 85.2953704,6.00740741 84.5039352,5.3900463 C83.7125,4.77268519 82.6361111,4.46412037 81.2747685,4.46412037 C80.5148148,4.46412037 79.8738426,4.55902778 79.3513889,4.74907407 C78.8289352,4.93888889 78.4016204,5.18425926 78.069213,5.4849537 C77.7368056,5.78587963 77.4993056,6.11828704 77.3569444,6.48240741 C77.2143519,6.8462963 77.1430556,7.19467593 77.1430556,7.52708333 C77.1430556,8.19189815 77.2618056,8.72222222 77.4993056,9.11805556 C77.7368056,9.51365741 78.1087963,9.8224537 78.6152778,10.0439815 C78.9636574,10.2023148 79.3592593,10.3446759 79.8025463,10.4712963 C80.2458333,10.5979167 80.7601852,10.7326389 81.3458333,10.875 C81.868287,11.0016204 82.3826389,11.1282407 82.8893519,11.2548611 C83.3958333,11.3814815 83.8430556,11.5518519 84.230787,11.7655093 C84.61875,11.9791667 84.9351852,12.2523148 85.1805556,12.5847222 C85.4259259,12.9171296 85.5486111,13.3523148 85.5486111,13.8905093 C85.5486111,14.412963 85.4259259,14.85625 85.1805556,15.2201389 C84.9351852,15.5842593 84.6226852,15.8810185 84.2425926,16.1106481 C83.8627315,16.3402778 83.4393519,16.5064815 82.9724537,16.6092593 C82.5053241,16.7122685 82.0502315,16.7636574 81.6071759,16.7636574 C80.1666667,16.7636574 79.0625,16.4430556 78.2946759,15.8020833 C77.5270833,15.1608796 77.1430556,14.1518519 77.1430556,12.774537 L76.668287,12.774537 C76.668287,14.3099537 77.0837963,15.4340278 77.9148148,16.1462963 C78.7458333,16.8585648 79.9766204,17.2148148 81.6071759,17.2148148 C82.1293981,17.2148148 82.655787,17.1553241 83.1861111,17.0368056 C83.7164352,16.9180556 84.1912037,16.7240741 84.6106481,16.4548611 C85.0303241,16.1858796 85.3706019,15.8375 85.631713,15.4101852 C85.8930556,14.9828704 86.0236111,14.4604167 86.0236111,13.8430556 C86.0236111,13.2574074 85.9087963,12.7824074 85.6791667,12.4185185 C85.4497685,12.0543981 85.1488426,11.7534722 84.7768519,11.5162037 C84.4048611,11.2787037 83.9854167,11.0925926 83.5185185,10.9581019 C83.0516204,10.8236111 82.5805556,10.6930556 82.105787,10.5664352 C81.4409722,10.3921296 80.8590278,10.2418981 80.3604167,10.1152778 C79.8618056,9.98865741 79.3988426,9.83819444 78.9715278,9.66412037 C78.5599537,9.4900463 78.2314815,9.24050926 77.9861111,8.9162037 C77.7407407,8.59166667 77.6180556,8.1287037 77.6180556,7.52708333 C77.6180556,7.4162037 77.6497685,7.21828704 77.712963,6.93356481 C77.7763889,6.64861111 77.9266204,6.35972222 78.1641204,6.06689815 C78.4016204,5.77384259 78.7657407,5.51273148 79.2564815,5.28333333 C79.7472222,5.0537037 80.4199074,4.93888889 81.2747685,4.93888889 C81.8604167,4.93888889 82.3946759,5.00231481 82.8773148,5.12893519 C83.3601852,5.25555556 83.7756944,5.45740741 84.1240741,5.73425926 C84.4722222,6.01134259 84.7414352,6.36365741 84.93125,6.79097222 C85.1212963,7.21828704 85.2162037,7.74074074 85.2162037,8.35810185 L85.6912037,8.35810185 Z" id="Path" fill="#000000" fill-rule="nonzero"></path>
        <path d="M96.5375,4.74907407 L96.1868056,4.74907407 L96.1868056,11.6585648 C96.1868056,12.3393519 96.143528,13.0232425 95.9534817,13.6406036 C95.7636669,14.2579647 95.5020628,14.8276664 95.1300721,15.294796 C94.7580813,15.7616942 94.2494876,16.150754 93.6953209,16.4278373 C93.1413857,16.7049207 92.4747685,16.8155682 91.7467593,16.8155682 C91.2243056,16.8155682 90.7095954,16.7352886 90.2426972,16.5848256 C89.7755676,16.4345942 89.3451573,16.1762312 88.9891388,15.8516942 C88.6328888,15.5271571 88.3104018,15.1024962 88.1046147,14.6038851 C87.8988277,14.105274 87.7881944,13.4868056 87.7881944,12.774537 L87.7868056,4.74907407 L87.4013889,4.74907407 L87.4013889,12.8458333 C87.4013889,13.5581019 87.5083333,14.1872685 87.7219907,14.7335648 C87.9356481,15.2796296 88.2363426,15.7386574 88.6243056,16.1106481 C89.012037,16.4826389 89.4710648,16.7597222 90.0013889,16.9416667 C90.531713,17.1238426 91.1134259,17.2148148 91.7467593,17.2148148 C92.9497685,17.2148148 93.9270833,16.9060185 94.6791667,16.2886574 C95.4310185,15.6712963 95.9178241,14.8877315 96.1393519,13.937963 L96.1868056,13.937963 L96.1868056,16.9534722 L96.5395833,16.9534722 L96.5375,4.74907407 Z" id="Path" fill="#000000" fill-rule="nonzero"></path>
    </g>
</svg>